<mxfile host="app.diagrams.net" modified="2023-05-06T01:19:09.746Z" agent="Mozilla/5.0 (Windows NT 10.0; Win64; x64) AppleWebKit/537.36 (KHTML, like Gecko) Chrome/112.0.0.0 Safari/537.36 Edg/112.0.1722.68" etag="xSHBccZ7vqEU-gFrhW1A" version="21.2.9" type="github">
  <diagram name="第 1 页" id="l1zGAiF1psK7VIrCqrJp">
    <mxGraphModel dx="2204" dy="764" grid="1" gridSize="10" guides="1" tooltips="1" connect="1" arrows="1" fold="1" page="1" pageScale="1" pageWidth="827" pageHeight="1169" math="0" shadow="0">
      <root>
        <mxCell id="0" />
        <mxCell id="1" parent="0" />
        <mxCell id="VS8eZi8hgBb83uew3FbY-45" value="nameServerCluster" style="rounded=0;whiteSpace=wrap;html=1;align=left;verticalAlign=top;" parent="1" vertex="1">
          <mxGeometry x="-10" y="1060" width="500" height="140" as="geometry" />
        </mxCell>
        <mxCell id="VS8eZi8hgBb83uew3FbY-38" value="brokerCluster" style="rounded=0;whiteSpace=wrap;html=1;align=left;verticalAlign=top;" parent="1" vertex="1">
          <mxGeometry x="30" y="1240" width="410" height="280" as="geometry" />
        </mxCell>
        <mxCell id="VS8eZi8hgBb83uew3FbY-22" value="producerGroup" style="rounded=0;whiteSpace=wrap;html=1;align=left;verticalAlign=top;" parent="1" vertex="1">
          <mxGeometry x="-120" y="660" width="180" height="240" as="geometry" />
        </mxCell>
        <mxCell id="VS8eZi8hgBb83uew3FbY-1" value="回溯消息" style="rounded=0;whiteSpace=wrap;html=1;" parent="1" vertex="1">
          <mxGeometry x="560" y="100" width="120" height="60" as="geometry" />
        </mxCell>
        <mxCell id="VS8eZi8hgBb83uew3FbY-2" value="半消息" style="rounded=0;whiteSpace=wrap;html=1;" parent="1" vertex="1">
          <mxGeometry x="610" y="220" width="120" height="60" as="geometry" />
        </mxCell>
        <mxCell id="VS8eZi8hgBb83uew3FbY-5" value="" style="edgeStyle=orthogonalEdgeStyle;rounded=0;orthogonalLoop=1;jettySize=auto;html=1;" parent="1" source="VS8eZi8hgBb83uew3FbY-3" target="VS8eZi8hgBb83uew3FbY-4" edge="1">
          <mxGeometry relative="1" as="geometry" />
        </mxCell>
        <mxCell id="VS8eZi8hgBb83uew3FbY-3" value="rocketmq" style="rounded=0;whiteSpace=wrap;html=1;" parent="1" vertex="1">
          <mxGeometry x="130" y="170" width="120" height="60" as="geometry" />
        </mxCell>
        <mxCell id="VS8eZi8hgBb83uew3FbY-6" style="edgeStyle=orthogonalEdgeStyle;rounded=0;orthogonalLoop=1;jettySize=auto;html=1;exitX=1;exitY=0.5;exitDx=0;exitDy=0;entryX=-0.05;entryY=0.483;entryDx=0;entryDy=0;entryPerimeter=0;" parent="1" source="VS8eZi8hgBb83uew3FbY-4" target="VS8eZi8hgBb83uew3FbY-2" edge="1">
          <mxGeometry relative="1" as="geometry" />
        </mxCell>
        <mxCell id="VS8eZi8hgBb83uew3FbY-4" value="事务" style="rounded=0;whiteSpace=wrap;html=1;" parent="1" vertex="1">
          <mxGeometry x="390" y="220" width="120" height="60" as="geometry" />
        </mxCell>
        <mxCell id="VS8eZi8hgBb83uew3FbY-10" value="producer" style="rounded=0;whiteSpace=wrap;html=1;" parent="1" vertex="1">
          <mxGeometry x="-90" y="700" width="120" height="60" as="geometry" />
        </mxCell>
        <mxCell id="VS8eZi8hgBb83uew3FbY-11" value="producer" style="rounded=0;whiteSpace=wrap;html=1;" parent="1" vertex="1">
          <mxGeometry x="-90" y="780" width="120" height="60" as="geometry" />
        </mxCell>
        <mxCell id="VS8eZi8hgBb83uew3FbY-12" value="broker" style="rounded=0;whiteSpace=wrap;html=1;align=left;verticalAlign=top;" parent="1" vertex="1">
          <mxGeometry x="140" y="600" width="250" height="330" as="geometry" />
        </mxCell>
        <mxCell id="VS8eZi8hgBb83uew3FbY-13" value="messageQueue" style="rounded=0;whiteSpace=wrap;html=1;" parent="1" vertex="1">
          <mxGeometry x="210" y="660" width="120" height="60" as="geometry" />
        </mxCell>
        <mxCell id="VS8eZi8hgBb83uew3FbY-14" value="messageQueue" style="rounded=0;whiteSpace=wrap;html=1;" parent="1" vertex="1">
          <mxGeometry x="210" y="740" width="120" height="60" as="geometry" />
        </mxCell>
        <mxCell id="VS8eZi8hgBb83uew3FbY-15" value="messageQueue" style="rounded=0;whiteSpace=wrap;html=1;" parent="1" vertex="1">
          <mxGeometry x="210" y="820" width="120" height="60" as="geometry" />
        </mxCell>
        <mxCell id="VS8eZi8hgBb83uew3FbY-19" style="rounded=0;orthogonalLoop=1;jettySize=auto;html=1;exitX=1;exitY=0.5;exitDx=0;exitDy=0;entryX=0;entryY=0.5;entryDx=0;entryDy=0;" parent="1" source="VS8eZi8hgBb83uew3FbY-11" target="VS8eZi8hgBb83uew3FbY-13" edge="1">
          <mxGeometry relative="1" as="geometry" />
        </mxCell>
        <mxCell id="VS8eZi8hgBb83uew3FbY-20" style="rounded=0;orthogonalLoop=1;jettySize=auto;html=1;exitX=1;exitY=0.5;exitDx=0;exitDy=0;entryX=0;entryY=0.5;entryDx=0;entryDy=0;" parent="1" source="VS8eZi8hgBb83uew3FbY-11" target="VS8eZi8hgBb83uew3FbY-14" edge="1">
          <mxGeometry relative="1" as="geometry" />
        </mxCell>
        <mxCell id="VS8eZi8hgBb83uew3FbY-21" style="rounded=0;orthogonalLoop=1;jettySize=auto;html=1;exitX=1;exitY=0.5;exitDx=0;exitDy=0;entryX=0;entryY=0.5;entryDx=0;entryDy=0;" parent="1" source="VS8eZi8hgBb83uew3FbY-11" target="VS8eZi8hgBb83uew3FbY-15" edge="1">
          <mxGeometry relative="1" as="geometry" />
        </mxCell>
        <mxCell id="VS8eZi8hgBb83uew3FbY-16" style="rounded=0;orthogonalLoop=1;jettySize=auto;html=1;exitX=1;exitY=0.5;exitDx=0;exitDy=0;entryX=0;entryY=0.5;entryDx=0;entryDy=0;" parent="1" source="VS8eZi8hgBb83uew3FbY-10" target="VS8eZi8hgBb83uew3FbY-13" edge="1">
          <mxGeometry relative="1" as="geometry" />
        </mxCell>
        <mxCell id="VS8eZi8hgBb83uew3FbY-17" style="rounded=0;orthogonalLoop=1;jettySize=auto;html=1;exitX=1;exitY=0.5;exitDx=0;exitDy=0;entryX=0;entryY=0.5;entryDx=0;entryDy=0;" parent="1" source="VS8eZi8hgBb83uew3FbY-10" target="VS8eZi8hgBb83uew3FbY-14" edge="1">
          <mxGeometry relative="1" as="geometry" />
        </mxCell>
        <mxCell id="VS8eZi8hgBb83uew3FbY-18" style="rounded=0;orthogonalLoop=1;jettySize=auto;html=1;exitX=1;exitY=0.5;exitDx=0;exitDy=0;entryX=0;entryY=0.5;entryDx=0;entryDy=0;" parent="1" source="VS8eZi8hgBb83uew3FbY-10" target="VS8eZi8hgBb83uew3FbY-15" edge="1">
          <mxGeometry relative="1" as="geometry" />
        </mxCell>
        <mxCell id="VS8eZi8hgBb83uew3FbY-34" style="edgeStyle=orthogonalEdgeStyle;rounded=0;orthogonalLoop=1;jettySize=auto;html=1;exitX=0;exitY=0.5;exitDx=0;exitDy=0;entryX=0;entryY=0.5;entryDx=0;entryDy=0;" parent="1" source="VS8eZi8hgBb83uew3FbY-23" target="VS8eZi8hgBb83uew3FbY-25" edge="1">
          <mxGeometry relative="1" as="geometry" />
        </mxCell>
        <mxCell id="VS8eZi8hgBb83uew3FbY-42" style="edgeStyle=orthogonalEdgeStyle;rounded=0;orthogonalLoop=1;jettySize=auto;html=1;exitX=0.5;exitY=0;exitDx=0;exitDy=0;entryX=0.5;entryY=1;entryDx=0;entryDy=0;" parent="1" source="VS8eZi8hgBb83uew3FbY-23" target="VS8eZi8hgBb83uew3FbY-39" edge="1">
          <mxGeometry relative="1" as="geometry" />
        </mxCell>
        <mxCell id="VS8eZi8hgBb83uew3FbY-43" style="edgeStyle=orthogonalEdgeStyle;rounded=0;orthogonalLoop=1;jettySize=auto;html=1;exitX=0.5;exitY=0;exitDx=0;exitDy=0;entryX=0.583;entryY=1;entryDx=0;entryDy=0;entryPerimeter=0;" parent="1" source="VS8eZi8hgBb83uew3FbY-23" target="VS8eZi8hgBb83uew3FbY-40" edge="1">
          <mxGeometry relative="1" as="geometry" />
        </mxCell>
        <mxCell id="VS8eZi8hgBb83uew3FbY-44" style="edgeStyle=orthogonalEdgeStyle;rounded=0;orthogonalLoop=1;jettySize=auto;html=1;exitX=0.5;exitY=0;exitDx=0;exitDy=0;entryX=0.5;entryY=1;entryDx=0;entryDy=0;" parent="1" source="VS8eZi8hgBb83uew3FbY-23" target="VS8eZi8hgBb83uew3FbY-41" edge="1">
          <mxGeometry relative="1" as="geometry" />
        </mxCell>
        <mxCell id="VS8eZi8hgBb83uew3FbY-23" value="broker/master" style="rounded=0;whiteSpace=wrap;html=1;" parent="1" vertex="1">
          <mxGeometry x="80" y="1300" width="120" height="60" as="geometry" />
        </mxCell>
        <mxCell id="VS8eZi8hgBb83uew3FbY-36" style="edgeStyle=orthogonalEdgeStyle;rounded=0;orthogonalLoop=1;jettySize=auto;html=1;exitX=1;exitY=0.5;exitDx=0;exitDy=0;entryX=1;entryY=0.5;entryDx=0;entryDy=0;" parent="1" source="VS8eZi8hgBb83uew3FbY-24" target="VS8eZi8hgBb83uew3FbY-26" edge="1">
          <mxGeometry relative="1" as="geometry" />
        </mxCell>
        <mxCell id="VS8eZi8hgBb83uew3FbY-24" value="broker/master" style="rounded=0;whiteSpace=wrap;html=1;" parent="1" vertex="1">
          <mxGeometry x="270" y="1300" width="120" height="60" as="geometry" />
        </mxCell>
        <mxCell id="VS8eZi8hgBb83uew3FbY-35" style="edgeStyle=orthogonalEdgeStyle;rounded=0;orthogonalLoop=1;jettySize=auto;html=1;exitX=0;exitY=0.5;exitDx=0;exitDy=0;entryX=0;entryY=0.5;entryDx=0;entryDy=0;" parent="1" source="VS8eZi8hgBb83uew3FbY-25" target="VS8eZi8hgBb83uew3FbY-23" edge="1">
          <mxGeometry relative="1" as="geometry" />
        </mxCell>
        <mxCell id="VS8eZi8hgBb83uew3FbY-25" value="broker/slave" style="rounded=0;whiteSpace=wrap;html=1;" parent="1" vertex="1">
          <mxGeometry x="80" y="1410" width="120" height="60" as="geometry" />
        </mxCell>
        <mxCell id="VS8eZi8hgBb83uew3FbY-37" style="edgeStyle=orthogonalEdgeStyle;rounded=0;orthogonalLoop=1;jettySize=auto;html=1;exitX=1;exitY=0.5;exitDx=0;exitDy=0;entryX=1;entryY=0.5;entryDx=0;entryDy=0;" parent="1" source="VS8eZi8hgBb83uew3FbY-26" target="VS8eZi8hgBb83uew3FbY-24" edge="1">
          <mxGeometry relative="1" as="geometry" />
        </mxCell>
        <mxCell id="VS8eZi8hgBb83uew3FbY-26" value="broker/slave" style="rounded=0;whiteSpace=wrap;html=1;" parent="1" vertex="1">
          <mxGeometry x="270" y="1410" width="120" height="60" as="geometry" />
        </mxCell>
        <mxCell id="VS8eZi8hgBb83uew3FbY-39" value="nameServer" style="rounded=0;whiteSpace=wrap;html=1;" parent="1" vertex="1">
          <mxGeometry x="23" y="1100" width="120" height="60" as="geometry" />
        </mxCell>
        <mxCell id="VS8eZi8hgBb83uew3FbY-40" value="nameServer" style="rounded=0;whiteSpace=wrap;html=1;" parent="1" vertex="1">
          <mxGeometry x="173" y="1100" width="120" height="60" as="geometry" />
        </mxCell>
        <mxCell id="VS8eZi8hgBb83uew3FbY-41" value="nameServer" style="rounded=0;whiteSpace=wrap;html=1;" parent="1" vertex="1">
          <mxGeometry x="327" y="1100" width="120" height="60" as="geometry" />
        </mxCell>
        <mxCell id="VDEfMlR_SxAB5JuYJyX8-1" value="nameserver" style="rounded=0;whiteSpace=wrap;html=1;" vertex="1" parent="1">
          <mxGeometry x="-160" y="1860" width="120" height="60" as="geometry" />
        </mxCell>
        <mxCell id="VDEfMlR_SxAB5JuYJyX8-2" value="nameserver" style="rounded=0;whiteSpace=wrap;html=1;" vertex="1" parent="1">
          <mxGeometry x="-20" y="1860" width="120" height="60" as="geometry" />
        </mxCell>
        <mxCell id="VDEfMlR_SxAB5JuYJyX8-3" value="nameserver" style="rounded=0;whiteSpace=wrap;html=1;" vertex="1" parent="1">
          <mxGeometry x="-290" y="1860" width="120" height="60" as="geometry" />
        </mxCell>
        <mxCell id="VDEfMlR_SxAB5JuYJyX8-8" style="edgeStyle=orthogonalEdgeStyle;rounded=0;orthogonalLoop=1;jettySize=auto;html=1;exitX=0.5;exitY=0;exitDx=0;exitDy=0;entryX=0.5;entryY=1;entryDx=0;entryDy=0;" edge="1" parent="1" source="VDEfMlR_SxAB5JuYJyX8-4" target="VDEfMlR_SxAB5JuYJyX8-3">
          <mxGeometry relative="1" as="geometry" />
        </mxCell>
        <mxCell id="VDEfMlR_SxAB5JuYJyX8-9" style="edgeStyle=orthogonalEdgeStyle;rounded=0;orthogonalLoop=1;jettySize=auto;html=1;exitX=0.5;exitY=0;exitDx=0;exitDy=0;entryX=0.5;entryY=1;entryDx=0;entryDy=0;" edge="1" parent="1" source="VDEfMlR_SxAB5JuYJyX8-4" target="VDEfMlR_SxAB5JuYJyX8-1">
          <mxGeometry relative="1" as="geometry" />
        </mxCell>
        <mxCell id="VDEfMlR_SxAB5JuYJyX8-10" style="edgeStyle=orthogonalEdgeStyle;rounded=0;orthogonalLoop=1;jettySize=auto;html=1;exitX=0.5;exitY=0;exitDx=0;exitDy=0;entryX=0.5;entryY=1;entryDx=0;entryDy=0;" edge="1" parent="1" source="VDEfMlR_SxAB5JuYJyX8-4" target="VDEfMlR_SxAB5JuYJyX8-2">
          <mxGeometry relative="1" as="geometry" />
        </mxCell>
        <mxCell id="VDEfMlR_SxAB5JuYJyX8-4" value="broker" style="rounded=0;whiteSpace=wrap;html=1;" vertex="1" parent="1">
          <mxGeometry x="-160" y="2080" width="120" height="60" as="geometry" />
        </mxCell>
        <mxCell id="VDEfMlR_SxAB5JuYJyX8-11" value="broker" style="rounded=0;whiteSpace=wrap;html=1;" vertex="1" parent="1">
          <mxGeometry x="-150" y="2090" width="120" height="60" as="geometry" />
        </mxCell>
        <mxCell id="VDEfMlR_SxAB5JuYJyX8-12" value="broker" style="rounded=0;whiteSpace=wrap;html=1;" vertex="1" parent="1">
          <mxGeometry x="-140" y="2100" width="120" height="60" as="geometry" />
        </mxCell>
        <mxCell id="VDEfMlR_SxAB5JuYJyX8-13" value="broker" style="rounded=0;whiteSpace=wrap;html=1;" vertex="1" parent="1">
          <mxGeometry x="-130" y="2110" width="120" height="60" as="geometry" />
        </mxCell>
        <mxCell id="VDEfMlR_SxAB5JuYJyX8-14" value="每隔30s，上报心跳包" style="text;html=1;strokeColor=none;fillColor=none;align=center;verticalAlign=middle;whiteSpace=wrap;rounded=0;" vertex="1" parent="1">
          <mxGeometry x="-180" y="2030" width="130" height="20" as="geometry" />
        </mxCell>
        <mxCell id="VDEfMlR_SxAB5JuYJyX8-15" value="1.nameserver收到心跳包后，更新brokerLiveTable中的BrokerLiveInfo中的lastupdatetimestamp&lt;br&gt;2.每隔10s扫描一次brokerLiveTable,如果连续120s未收到心跳包，则移除该broker路由信息，并关闭socket连接" style="text;html=1;strokeColor=#d79b00;fillColor=#ffe6cc;align=left;verticalAlign=top;whiteSpace=wrap;rounded=0;" vertex="1" parent="1">
          <mxGeometry x="-340" y="1800" width="500" height="70" as="geometry" />
        </mxCell>
      </root>
    </mxGraphModel>
  </diagram>
</mxfile>
